<?xml version="1.0" encoding="UTF-8"?>
<svg width="128px" height="104px" viewBox="0 0 128 104" version="1.1" xmlns="http://www.w3.org/2000/svg" xmlns:xlink="http://www.w3.org/1999/xlink">
    <title>sclass-banner-copy</title>
    <g id="页面-1" stroke="none" stroke-width="1" fill="none" fill-rule="evenodd">
        <g id="sclass-banner-copy" fill-rule="nonzero">
            <g id="编组-3" fill="#FFFFFF">
                <path d="M0.78,39.8971875 L2.236,36.6211875 C4.212,38.7011875 6.24,39.5851875 8.788,39.5851875 C13.728,39.5851875 17.16,35.6331875 17.16,29.8611875 C17.16,26.7411875 16.172,24.2971875 14.144,22.4771875 C13.208,21.6971875 11.856,20.6571875 10.036,19.4611875 C4.42,15.8731875 3.588,14.8331875 3.588,11.6611875 C3.588,8.1251875 5.772,5.5251875 8.684,5.5251875 C11.856,5.5251875 13.676,7.9171875 14.664,13.3251875 L15.808,13.3251875 L15.808,3.7571875 L15.028,3.7571875 L13.832,6.6171875 C12.376,4.7971875 10.712,3.9651875 8.424,3.9651875 C3.692,3.9651875 0.416,7.6051875 0.416,12.8571875 C0.416,17.4331875 1.872,19.3571875 8.216,23.2571875 C12.74,26.0651875 13.936,27.7291875 13.936,31.2131875 C13.936,35.1651875 11.596,37.9731875 8.32,37.9731875 C4.368,37.9731875 1.976,34.8011875 1.144,28.6131875 L-7.28306304e-14,28.6131875 L-7.28306304e-14,39.8971875 L0.78,39.8971875 Z" id="S"></path>
                <path d="M26.007356,29.9765625 C26.0237625,29.9921875 26.2014999,29.9140625 26.5405682,29.7421875 L26.5405682,29.7421875 L28.1155948,28.9921875 C29.2312387,28.4609375 31.5500279,27.515625 35.0719625,26.15625 L35.0719625,26.15625 L36.7126152,25.5234375 C36.8985559,25.4609375 36.9887918,25.3359375 36.9833229,25.1484375 C36.9778541,24.9609375 36.8657428,24.875 36.6469891,24.890625 L36.6469891,24.890625 L34.9407102,25.078125 C34.8036246,25.0947917 34.640094,25.1125694 34.4501186,25.1314583 L34.1453218,25.160625 C33.658376,25.205625 33.037553,25.25625 32.2828528,25.3125 C31.025019,25.40625 29.6906214,25.5078125 28.2796601,25.6171875 L28.2796601,25.6171875 L32.0859745,20.3203125 C32.5781703,19.6484375 33.907099,17.578125 36.0727606,14.109375 L36.0727606,14.109375 L36.9587131,13.9453125 C37.2212176,13.8984375 37.3579386,13.765625 37.3688763,13.546875 C37.3688763,13.421875 37.2868437,13.2734375 37.1227784,13.1015625 L37.1227784,13.1015625 L34.1696034,10.171875 C34.0055382,10.015625 33.907099,9.9609375 33.8742859,10.0078125 L33.8742859,10.0078125 L33.7758468,10.359375 L32.8734878,12.65625 C32.5344195,13.515625 32.3074626,14.0820312 32.1926169,14.3554688 C32.0777712,14.6289062 31.8398765,15.125 31.4789329,15.84375 L31.4789329,15.84375 L26.8194791,14.71875 C28.7773247,11.53125 30.7406392,8.2421875 32.7094225,4.8515625 L32.7094225,4.8515625 L33.7430337,4.5234375 C33.8852236,4.4921875 33.9617874,4.390625 33.9727251,4.21875 C33.9727251,4.03125 33.8688171,3.8515625 33.6610011,3.6796875 L33.6610011,3.6796875 L30.5765739,1.2890625 L30.330476,1.078125 C30.3086006,1.09375 30.2921941,1.1171875 30.2812564,1.1484375 L30.2812564,1.1484375 L30.1500042,1.734375 L29.7234345,3.1875 C29.0562357,5.46875 28.2605191,7.73046875 27.3362847,9.97265625 C26.4120504,12.2148438 25.6491468,13.484375 25.0475742,13.78125 L25.0475742,13.78125 L24.6210044,13.9921875 C24.4460015,14.0859375 24.3585,14.171875 24.3585,14.25 C24.3585,14.328125 24.3803754,14.4375 24.4241261,14.578125 L24.4241261,14.578125 L25.2444525,17.90625 C25.2663279,18.03125 25.3100786,18.1015625 25.3757047,18.1171875 L25.3757047,18.1171875 L25.6874287,18.0234375 L26.753853,17.71875 C28.0444998,17.359375 29.4828054,17.0625 31.0687697,16.828125 L31.0687697,16.828125 L29.7234345,19.5234375 C28.1593455,22.5859375 27.136672,24.3046875 26.6554138,24.6796875 C26.1741557,25.0546875 25.7968056,25.2890625 25.5233635,25.3828125 L25.5233635,25.3828125 L24.949135,25.59375 C24.8725712,25.625 24.8233516,25.703125 24.8014762,25.828125 C24.7905386,25.890625 24.8178828,26.0234375 24.8835089,26.2265625 L24.8835089,26.2265625 L25.8679005,29.53125 C25.9444643,29.8125 25.9909495,29.9609375 26.007356,29.9765625 Z M31.0195502,43.5820312 C31.0742386,43.6992188 31.2054908,43.6796875 31.4133068,43.5234375 L31.4133068,43.5234375 L32.2664463,42.890625 C32.8461436,42.46875 33.8332696,41.5390625 35.2278245,40.1015625 C36.6223793,38.6640625 37.7845083,36.6992188 38.7142116,34.2070312 C39.6439148,31.7148438 40.2263465,29.2382813 40.4615067,26.7773438 C40.696667,24.3164063 40.885342,21.609375 41.0275319,18.65625 L41.0275319,18.65625 L41.4376951,22.875 C41.6017604,24.953125 41.9736417,26.9375 42.553339,28.828125 C43.1330363,30.71875 43.7236713,32.4765625 44.325244,34.1015625 C41.787701,37.8359375 39.1462501,40.4921875 36.4008912,42.0703125 L36.4008912,42.0703125 L35.3836865,42.65625 C35.2414966,42.75 35.173136,42.84375 35.1786049,42.9375 C35.1840737,43.03125 35.1950114,43.1054688 35.2114179,43.1601562 C35.2278245,43.2148438 35.2524343,43.2421875 35.2852473,43.2421875 C35.3289981,43.2734375 35.3836865,43.2734375 35.4493126,43.2421875 L35.4493126,43.2421875 L36.614176,42.84375 C39.2392204,41.953125 41.2107382,40.90625 42.5287292,39.703125 C43.8467202,38.5 44.8775971,37.5234375 45.6213596,36.7734375 C47.0541964,39.1328125 48.4487512,41 49.8050242,42.375 L49.8050242,42.375 L50.2644069,42.84375 C50.3737838,42.96875 50.4448787,43.0273438 50.4776918,43.0195312 C50.5105048,43.0117188 50.5925375,42.921875 50.7237897,42.75 L50.7237897,42.75 L51.4456769,41.765625 C51.8722466,41.1875 52.5503831,40.6875 53.4800863,40.265625 L53.4800863,40.265625 L54.3824453,39.8671875 C54.568386,39.7890625 54.6586219,39.6679688 54.6536026,39.5039062 C54.6476842,39.3398438 54.5574483,39.2265625 54.3824453,39.1640625 L54.3824453,39.1640625 L53.3488341,38.8359375 C52.9222644,38.7109375 52.2796754,38.4023438 51.4210671,37.9101562 C50.5624588,37.4179688 49.8186963,36.8359375 49.1897794,36.1640625 C48.5608625,35.4921875 47.9674931,34.796875 47.4096711,34.078125 L47.4096711,34.078125 L49.0995435,30.46875 C49.8323684,28.984375 50.920668,25.4140625 52.3644424,19.7578125 L52.3644424,19.7578125 L53.1847688,18.9375 C53.2613326,18.859375 53.2968801,18.8007812 53.2914112,18.7617188 C53.2859424,18.7226562 53.2777391,18.6875 53.2668015,18.65625 C53.2558638,18.625 53.2449261,18.5976562 53.2339884,18.5742188 C53.2230507,18.5507812 53.1628934,18.4765625 53.0535166,18.3515625 L53.0535166,18.3515625 L50.7237897,15.9140625 C50.5487867,15.7421875 50.4230034,15.6601563 50.3464396,15.6679688 C50.2698758,15.6757813 50.1878431,15.765625 50.1003416,15.9375 L50.1003416,15.9375 L49.4112675,17.1796875 L46.8682557,17.1796875 C47.3057631,15.8046875 47.7049886,14.4765625 48.0659322,13.1953125 C48.4268758,11.9140625 48.9464159,10.0078125 49.6245523,7.4765625 L49.6245523,7.4765625 L50.5761309,6.7265625 C50.7073832,6.6328125 50.7757437,6.54296875 50.7812125,6.45703125 C50.7866814,6.37109375 50.7730093,6.30078125 50.7401962,6.24609375 C50.7073832,6.19140625 50.6417571,6.109375 50.5433179,6 L50.5433179,6 L48.1479649,3.5390625 C48.005775,3.3984375 47.9155391,3.33984375 47.8772572,3.36328125 C47.8389753,3.38671875 47.7815524,3.4609375 47.7049886,3.5859375 L47.7049886,3.5859375 L46.8190361,5.15625 L35.7282236,5.15625 C35.3782176,5.15625 35.22509,5.3671875 35.2688408,5.7890625 C35.3125915,6.2109375 35.4657191,6.421875 35.7282236,6.421875 L35.7282236,6.421875 L38.5501463,6.421875 L38.5337398,8.578125 C38.5228021,8.625 38.4954579,10.1992188 38.4517071,13.3007813 C38.4079564,16.4023438 38.3395958,19.3632813 38.2466255,22.1835938 C38.1536552,25.0039063 37.7790395,28.0273438 37.1227784,31.2539063 C36.4665173,34.4804688 35.6407221,36.859375 34.6453927,38.390625 C33.6500634,39.921875 32.7641109,41.1171875 31.9875353,41.9765625 L31.9875353,41.9765625 L31.1015828,42.9609375 C31.0031436,43.0703125 30.9511896,43.171875 30.9457208,43.265625 C30.9402519,43.359375 30.9648617,43.4648438 31.0195502,43.5820312 Z M45.6869857,31.453125 L44.6533745,29.203125 C43.5814814,26.96875 42.7775615,24.421875 42.241615,21.5625 C41.7056684,18.703125 41.4076165,16.3359375 41.3474592,14.4609375 C41.287302,12.5859375 41.2599577,11.2773438 41.2654266,10.5351562 C41.2708954,9.79296875 41.2955052,8.6875 41.339256,7.21875 C41.6126981,7.046875 41.7794978,6.9140625 41.839655,6.8203125 C41.8998123,6.7265625 41.962704,6.59375 42.0283301,6.421875 L42.0283301,6.421875 L46.8026296,6.421875 L44.8994724,14.1796875 L44.6205615,15.3046875 C44.4783716,15.8515625 44.377198,16.1914062 44.3170407,16.3242188 C44.2568834,16.4570312 44.1557098,16.578125 44.0135199,16.6875 L44.0135199,16.6875 L43.5705437,17.0625 C43.4830422,17.140625 43.4420259,17.2148438 43.4474947,17.2851562 C43.4529636,17.3554688 43.4611669,17.4140625 43.4721045,17.4609375 C43.4830422,17.5078125 43.5158553,17.5625 43.5705437,17.625 L43.5705437,17.625 L45.3752617,20.015625 C45.4190125,20.09375 45.4627632,20.1289062 45.5065139,20.1210938 C45.5502647,20.1132812 45.643235,19.984375 45.7854249,19.734375 L45.7854249,19.734375 L46.4744991,18.46875 L49.3128283,18.46875 C49.2472022,18.765625 49.1214188,19.4726562 48.9354782,20.5898438 C48.7495375,21.7070312 48.4268758,23.15625 47.9674931,24.9375 C47.5081103,26.71875 47.0924783,28.0664062 46.720597,28.9804688 C46.3487157,29.8945312 46.0041786,30.71875 45.6869857,31.453125 L45.6869857,31.453125 Z M26.130405,40.6640625 C26.1522803,40.6796875 26.2944702,40.5703125 26.5569747,40.3359375 L26.5569747,40.3359375 L27.935123,39.1171875 C28.5148203,38.6171875 30.8773603,36.703125 35.0227429,33.375 L35.0227429,33.375 L36.0727606,32.53125 C36.1930752,32.4375 36.2587013,32.3125 36.269639,32.15625 C36.2805766,32 36.2422948,31.9023438 36.1547933,31.8632813 C36.0672918,31.8242188 35.9797903,31.8203125 35.8922888,31.8515625 L35.8922888,31.8515625 L34.6946123,32.34375 C33.316464,32.921875 30.5218855,33.9609375 26.3108768,35.4609375 L26.3108768,35.4609375 L25.0803872,35.8359375 L24.8178828,35.8828125 C24.774132,35.9453125 24.7577255,36.015625 24.7686632,36.09375 L24.7686632,36.09375 L24.981948,36.796875 L26.0155593,40.3359375 C26.0702477,40.5390625 26.1085296,40.6484375 26.130405,40.6640625 Z M64.3986304,43.2890625 C64.5025384,43.4609375 64.8798885,43.5195312 65.5306808,43.4648438 C66.181473,43.4101562 66.6545279,43.03125 66.9498454,42.328125 L66.9498454,42.328125 L66.8185932,38.0859375 L66.8185932,31.5 C69.6842666,29.671875 71.1936672,28.703125 71.3467948,28.59375 L71.3467948,28.59375 L72.3311864,27.9140625 C72.4405633,27.8359375 72.4897828,27.6914062 72.4788452,27.4804688 C72.4679075,27.2695313 72.3749371,27.1953125 72.1999342,27.2578125 L72.1999342,27.2578125 L71.199136,27.6328125 L68.2459611,28.734375 C67.9178305,28.859375 67.4420412,29.0390625 66.8185932,29.2734375 L66.8185932,29.2734375 L66.8185932,20.7890625 L71.199136,20.7890625 C71.3194505,20.7890625 71.3850767,20.7148438 71.3960143,20.5664062 C71.406952,20.4179688 71.3413259,20.234375 71.199136,20.015625 L71.199136,20.015625 L69.2959788,17.3671875 C69.186602,17.2265625 69.0854284,17.1601562 68.9924581,17.1679688 C68.8994877,17.1757812 68.7819076,17.3125 68.6397177,17.578125 L68.6397177,17.578125 L67.6553261,19.4765625 L66.8185932,19.4765625 L66.8185932,15.0234375 L67.6061065,14.15625 C67.726421,14.015625 67.8002504,13.8789062 67.8275946,13.7460938 C67.8549388,13.6132812 67.7428275,13.4921875 67.4912608,13.3828125 L67.4912608,13.3828125 L64.8662164,12.3984375 L64.357614,12.1875 C64.2919879,12.21875 64.2318307,12.2734375 64.1771422,12.3515625 L64.1771422,12.3515625 L64.3083945,16.265625 L64.3083945,19.4765625 L61.4700652,19.4765625 L64.04589,9.515625 L71.2483556,9.515625 C71.3686701,9.515625 71.4397651,9.41015625 71.4616404,9.19921875 C71.4835158,8.98828125 71.4452339,8.8203125 71.3467948,8.6953125 L71.3467948,8.6953125 L69.2959788,6.2109375 C69.1537889,6.0546875 69.0498809,5.98828125 68.9842548,6.01171875 C68.9186287,6.03515625 68.803783,6.2109375 68.6397177,6.5390625 L68.6397177,6.5390625 L67.8029848,8.2265625 L64.4068336,8.2265625 L65.5224775,3.4453125 L66.3756169,2.8359375 C66.5724953,2.6953125 66.6627312,2.5546875 66.6463246,2.4140625 C66.6299181,2.2734375 66.5396822,2.15625 66.3756169,2.0625 L66.3756169,2.0625 L63.3568159,0.5390625 C63.0614984,0.3984375 62.8864954,0.3515625 62.831807,0.3984375 L62.831807,0.3984375 L62.7333678,1.359375 L62.2083589,4.640625 L61.5520978,8.2265625 L58.073914,8.2265625 C57.7676588,8.2265625 57.6282033,8.39453125 57.6555476,8.73046875 C57.6828918,9.06640625 57.7785965,9.328125 57.9426618,9.515625 L57.9426618,9.515625 L61.338813,9.515625 C60.540362,12.9375 60.0755104,14.9140625 59.9442581,15.4453125 L59.9442581,15.4453125 L59.3044036,17.9296875 C59.2387775,18.1796875 59.1129941,18.5625 58.9270534,19.078125 C58.7411128,19.59375 58.5661098,19.921875 58.4020446,20.0625 C58.1614155,20.265625 58.0438354,20.3945312 58.0493042,20.4492188 C58.0547731,20.5039062 58.1121959,20.5859375 58.2215728,20.6953125 L58.2215728,20.6953125 L59.845819,22.640625 C60.0426973,22.890625 60.157543,23.0117188 60.1903561,23.0039062 C60.2231691,22.9960937 60.261451,22.9609375 60.3052017,22.8984375 C60.3489525,22.8359375 60.4856736,22.5234375 60.7153649,21.9609375 L60.7153649,21.9609375 L61.1911542,20.7890625 L64.3083945,20.7890625 L64.3083945,30.0234375 C62.4818011,30.5390625 61.0817774,30.875 60.1083234,31.03125 L60.1083234,31.03125 L58.94346,31.21875 L58.2379793,31.3125 C58.1723532,31.390625 58.1395401,31.4609375 58.1395401,31.5234375 L58.1395401,31.5234375 L58.2215728,31.8046875 L59.3044036,36.2109375 L59.3536232,36.421875 C59.3645608,36.453125 59.3864362,36.46875 59.4192493,36.46875 C59.4411246,36.484375 59.4848754,36.46875 59.5505015,36.421875 L59.5505015,36.421875 L60.2067626,35.859375 L61.338813,35.0625 C62.9575904,34 63.9474509,33.34375 64.3083945,33.09375 L64.3083945,33.09375 L64.3083945,38.578125 L64.1771422,42.703125 C64.220893,42.921875 64.2947224,43.1171875 64.3986304,43.2890625 Z M68.3033839,26.5664063 C68.3307281,26.7929688 68.4592459,26.8046875 68.6889373,26.6015625 L68.6889373,26.6015625 L69.5420767,25.8515625 C70.5264684,24.9921875 71.6776597,23.7070313 72.9956508,21.9960938 C74.3136418,20.2851563 75.3773317,18.609375 76.1867204,16.96875 L76.1867204,16.96875 L77.2203316,14.71875 C77.3734592,14.390625 77.5265868,14.03125 77.6797144,13.640625 L77.6797144,13.640625 L79.2383345,13.640625 C79.2820852,13.921875 79.3695867,14.4804688 79.5008389,15.3164063 C79.6320911,16.1523438 79.8481104,17.0078125 80.1488968,17.8828125 C80.4496831,18.7578125 80.8133611,19.6367188 81.2399308,20.5195313 C81.6665006,21.4023438 82.0766637,22.140625 82.4704204,22.734375 C82.8641771,23.328125 83.4302023,24.0117188 84.168496,24.7851563 C84.9067897,25.5585938 85.3907823,25.953125 85.6204737,25.96875 C85.7189128,25.984375 85.8392274,25.8515625 85.9814173,25.5703125 L85.9814173,25.5703125 L86.4900196,24.5625 C86.8400256,24 87.3212837,23.5859375 87.9337941,23.3203125 L87.9337941,23.3203125 L88.5572421,23.0625 C88.7103697,23 88.7896679,22.8828125 88.7951368,22.7109375 C88.8006056,22.5390625 88.7213074,22.421875 88.5572421,22.359375 L88.5572421,22.359375 L87.4580048,21.9609375 C86.3532986,21.5703125 85.174763,20.8671875 83.9223981,19.8515625 C82.6700332,18.8359375 81.7512676,17.7929688 81.1661015,16.7226563 C80.5809353,15.6523438 80.2555392,15.0351563 80.1899131,14.8710938 C80.124287,14.7070313 79.9766282,14.296875 79.7469368,13.640625 L79.7469368,13.640625 L87.310346,13.640625 C87.485349,13.640625 87.5865226,13.546875 87.6138668,13.359375 C87.641211,13.171875 87.5400374,12.921875 87.310346,12.609375 L87.310346,12.609375 L85.2103105,9.890625 C85.0243698,9.671875 84.8985865,9.55859375 84.8329604,9.55078125 C84.7673342,9.54296875 84.636082,9.71875 84.4392037,10.078125 L84.4392037,10.078125 L83.1594946,12.3984375 L78.1390971,12.3984375 C78.3031624,11.9296875 78.4836342,11.4414063 78.6805125,10.9335938 C78.8773909,10.4257813 79.1617707,9.6640625 79.533652,8.6484375 L79.533652,8.6484375 L80.1735065,8.2265625 C80.3375718,8.1171875 80.4141356,8.01953125 80.4031979,7.93359375 C80.3922602,7.84765625 80.3485095,7.7734375 80.2719457,7.7109375 L80.2719457,7.7109375 L78.6969191,6.75 C79.6594354,6.640625 80.6766401,6.47265625 81.7485332,6.24609375 C82.8204263,6.01953125 83.6626281,5.84375 84.2751384,5.71875 L84.2751384,5.71875 L85.5220345,5.484375 C85.7736013,5.4375 85.9130568,5.3671875 85.940401,5.2734375 C85.9677452,5.1796875 85.8282897,4.9296875 85.5220345,4.5234375 L85.5220345,4.5234375 L83.5368447,1.9921875 C83.1868388,1.5546875 82.9899604,1.34765625 82.9462097,1.37109375 C82.902459,1.39453125 82.8012854,1.484375 82.6426889,1.640625 C82.4840925,1.796875 82.344637,1.9140625 82.2243225,1.9921875 L82.2243225,1.9921875 L80.7313285,3 C80.1516312,3.390625 78.9676268,3.98046875 77.1793153,4.76953125 C75.3910038,5.55859375 74.2945009,6.03125 73.8898065,6.1875 C73.4851122,6.34375 72.9163526,6.53125 72.1835277,6.75 L72.1835277,6.75 L71.0186642,7.1015625 C70.8983497,7.1484375 70.8272547,7.26171875 70.8053793,7.44140625 C70.783504,7.62109375 70.887412,7.7109375 71.1171034,7.7109375 L71.1171034,7.7109375 L71.8061775,7.7109375 C72.4296256,7.7109375 74.0265276,7.4765625 76.5968836,7.0078125 C76.2578153,8.6484375 76.0171863,9.71484375 75.8749963,10.2070313 C75.7328064,10.6992188 75.6042886,11.1328125 75.4894429,11.5078125 C75.3745973,11.8828125 75.2898302,12.1796875 75.2351418,12.3984375 L75.2351418,12.3984375 L68.8858156,12.3984375 C68.5904981,12.3984375 68.4537771,12.6054688 68.4756524,13.0195313 C68.4975278,13.4335938 68.6342489,13.640625 68.8858156,13.640625 L68.8858156,13.640625 L74.8413851,13.640625 C74.6991952,14.03125 74.5296611,14.5351563 74.3327828,15.1523438 C74.1359044,15.7695313 73.8898065,16.4375 73.594489,17.15625 C73.2991715,17.875 72.8288511,18.9101563 72.1835277,20.2617188 C71.5382042,21.6132813 70.9967888,22.6171875 70.5592814,23.2734375 C70.121774,23.9296875 69.7006732,24.5 69.2959788,24.984375 L69.2959788,24.984375 L68.492059,25.9453125 C68.3389314,26.1328125 68.2760397,26.3398438 68.3033839,26.5664063 Z M67.9260338,42.5859375 C67.9424403,42.8046875 68.0873646,42.8125 68.3608068,42.609375 L68.3608068,42.609375 L69.5748898,41.7421875 C70.1983378,41.3046875 71.1198378,40.46875 72.3393897,39.234375 C73.5589415,38 74.3847368,36.5820312 74.8167753,34.9804688 C75.2488139,33.3789062 75.541397,31.9765625 75.6945245,30.7734375 C75.8476521,29.5703125 75.9433569,28.5664062 75.9816388,27.7617188 C76.0199207,26.9570312 76.0499993,25.984375 76.0718747,24.84375 L76.0718747,24.84375 L76.7937619,24.0234375 C76.8265749,23.9921875 76.8648568,23.9257812 76.9086076,23.8242188 C76.9523583,23.7226562 76.9714993,23.6601562 76.9660304,23.6367188 C76.9605616,23.6132812 76.9468895,23.5742188 76.9250141,23.5195312 C76.9031387,23.4648438 76.8375126,23.4140625 76.7281358,23.3671875 L76.7281358,23.3671875 L73.7749608,22.359375 C73.5233941,22.28125 73.3784697,22.25 73.3401878,22.265625 C73.3019059,22.28125 73.2663585,22.3125 73.2335454,22.359375 L73.2335454,22.359375 L73.2991715,23.203125 L73.3483911,24.65625 C73.3483911,24.953125 73.3511255,25.3359375 73.3565944,25.8046875 C73.3620632,26.2734375 73.3483911,27.0039062 73.3155781,27.9960938 C73.282765,28.9882812 73.1925291,30.2890625 73.0448704,31.8984375 C72.8972116,33.5078125 72.4460321,35.1601562 71.6913318,36.8554688 C70.9366316,38.5507812 70.0725545,39.921875 69.0991005,40.96875 L69.0991005,40.96875 L68.0654893,42.0703125 C67.9561124,42.1953125 67.9096272,42.3671875 67.9260338,42.5859375 Z M80.1160837,43.265625 C80.2199917,43.4375 80.6192172,43.5078125 81.3137602,43.4765625 C82.0083032,43.4453125 82.4239352,43.25 82.5606563,42.890625 C82.6973774,42.53125 82.7766756,42.234375 82.7985509,42 L82.7985509,42 L82.6672987,38.296875 L82.6672987,25.5703125 L83.1594946,24.890625 C83.2688714,24.75 83.3290287,24.6132813 83.3399664,24.4804688 C83.350904,24.3476563 83.2688714,24.2421875 83.0938684,24.1640625 L83.0938684,24.1640625 L80.5836697,23.1328125 L80.0586609,22.8984375 C80.0039724,22.9296875 79.9438152,22.984375 79.8781891,23.0625 L79.8781891,23.0625 L80.0094413,27.09375 L80.0094413,39.3984375 L79.9110021,42.65625 C79.9438152,42.890625 80.0121757,43.09375 80.1160837,43.265625 Z M107.32631,43.9108561 C107.873194,43.9023438 108.307967,43.7851562 108.630628,43.5585938 C108.95329,43.3320312 109.141965,43.1484375 109.196654,43.0078125 C109.251342,42.8671875 109.295093,42.6953125 109.327906,42.4921875 L109.327906,42.4921875 L109.21306,38.5078125 L109.21306,31.453125 L117.678828,31.453125 L117.678828,31.40625 L121.550769,31.40625 C121.758585,31.40625 121.859759,31.3398438 121.854695,31.2070312 C121.848821,31.0742188 121.818742,30.9335938 121.764054,30.7851562 C121.709365,30.6367187 121.616395,30.4765625 121.485143,30.3046875 L121.485143,30.3046875 L119.106196,27.328125 C118.974944,27.1875 118.87377,27.1210938 118.802676,27.1289062 C118.731581,27.1367188 118.597594,27.3203125 118.400716,27.6796875 L118.400716,27.6796875 L117.006161,30.1640625 L109.21306,30.1640625 L109.21306,22.828125 L118.400716,22.78125 C118.597594,22.78125 118.693299,22.6679687 118.68783,22.4414062 C118.682361,22.2148438 118.586656,21.9765625 118.400716,21.7265625 L118.400716,21.7265625 L116.30068,19.1484375 C116.027238,18.8203125 115.819422,18.6132812 115.677232,18.5273438 C115.535042,18.4414062 115.31082,18.703125 115.004564,19.3125 L115.004564,19.3125 L113.856108,21.5625 L109.21306,21.5625 L109.21306,15.5390625 L109.96776,14.9765625 C110.153701,14.8359375 110.254875,14.671875 110.271281,14.484375 C110.287688,14.296875 110.186514,14.1484375 109.96776,14.0390625 L109.96776,14.0390625 L106.719268,12.65625 L106.341918,12.4921875 C106.276292,12.5234375 106.210666,12.5859375 106.14504,12.6796875 L106.14504,12.6796875 L106.243479,16.6875 L106.243479,21.5625 L99.6644612,21.5625 L104.422354,9.84375 L118.843692,9.84375 L118.843692,9.8203125 L120.041368,9.8203125 C120.227309,9.8203125 120.325748,9.7109375 120.336686,9.4921875 C120.347624,9.2734375 120.254653,9.0390625 120.057775,8.7890625 L120.057775,8.7890625 L117.48195,5.8125 C117.219446,5.53125 117.05538,5.40625 116.989754,5.4375 C116.924128,5.46875 116.749125,5.75 116.464745,6.28125 L116.464745,6.28125 L115.217849,8.578125 L104.930957,8.578125 L106.719268,4.078125 L107.834912,3.3515625 C108.03179,3.2265625 108.132964,3.08203125 108.138433,2.91796875 C108.143902,2.75390625 108.086479,2.625 107.966164,2.53125 L107.966164,2.53125 L104.701265,0.421875 L104.11063,0 C104.077817,0.015625 104.055942,0.03125 104.045004,0.046875 L104.045004,0.046875 L103.848126,1.125 L103.487182,2.53125 C103.268428,3.359375 102.912954,4.546875 102.420758,6.09375 C101.928562,7.640625 101.666058,8.46875 101.633245,8.578125 L101.633245,8.578125 L93.4463873,8.578125 C93.1401321,8.578125 92.9952078,8.7890625 93.0116143,9.2109375 C93.0280208,9.6328125 93.1729452,9.84375 93.4463873,9.84375 L93.4463873,9.84375 L101.173862,9.84375 C100.703541,11.1875 100.296113,12.296875 99.9515754,13.171875 C99.6070384,14.046875 99.1039049,15.2929688 98.4421749,16.9101562 C97.780445,18.5273438 97.345672,19.515625 97.137856,19.875 C96.93004,20.234375 96.6948797,20.4765625 96.4323753,20.6015625 C95.9729925,20.8359375 95.7460356,20.9804688 95.7515044,21.0351562 C95.7569733,21.0898438 95.852678,21.265625 96.0386186,21.5625 L96.0386186,21.5625 L97.7448975,24.3984375 C97.832399,24.5703125 97.9417758,24.5703125 98.0730281,24.3984375 L98.0730281,24.3984375 L99.2707046,22.828125 L106.243479,22.828125 L106.243479,30.1640625 L92.2815238,30.1640625 C92.0190194,30.1640625 91.8877672,30.4453125 91.8877672,31.0078125 L91.8877672,31.0078125 L91.9533933,31.265625 C91.9533933,31.296875 92.0080817,31.3359375 92.1174586,31.3828125 L92.1174586,31.3828125 L92.2815238,31.453125 L106.243479,31.453125 L106.243479,38.671875 L106.14504,42.609375 C106.155977,43 106.218869,43.3164062 106.333715,43.5585938 C106.44856,43.8007812 106.779425,43.9179687 107.32631,43.9108561 Z" id="级轿车"></path>
            </g>
            <polygon id="路径" fill="#A5AFB9" transform="translate(10.000000, 65.500000) scale(-1, 1) rotate(-180.000000) translate(-10.000000, -65.500000) " points="20 65 20 66 0 66 0 65"></polygon>
            <path d="M3.70678541,102.602286 C3.7242291,102.614745 3.81435487,102.504685 3.9771627,102.272105 L3.9771627,102.272105 L4.53536097,101.474687 L15.6818827,101.474687 C15.8272469,101.474687 15.8723098,101.412389 15.8170714,101.287792 C15.761833,101.163196 15.7283993,101.088438 15.7167701,101.063519 L15.7167701,101.063519 L14.5044333,99.24441 C14.3939565,99.094894 14.3227281,99.018059 14.290748,99.013906 C14.2587679,99.009753 14.193354,99.086587 14.0945064,99.24441 L14.0945064,99.24441 L13.1787124,100.764487 L4.48302988,100.801866 L4.48302988,88.479272 L6.60243895,88.479272 L6.60243895,94.833693 L6.53266417,97.612195 C6.56173699,97.745098 6.59662439,97.836469 6.63732634,97.886308 C6.6780283,97.936146 6.79722689,97.958989 6.99492211,97.954836 C7.19261733,97.950683 7.40484897,97.90915 7.63161702,97.830239 C7.85838507,97.751328 7.99648099,97.653728 8.0459048,97.537438 C8.0953286,97.421147 8.12004051,97.304857 8.12004051,97.188567 L8.12004051,97.188567 L8.12004051,95.842925 L10.8587008,95.842925 L10.8587008,97.188567 C10.8587008,97.32147 10.8775981,97.425301 10.9153928,97.500059 C10.9531875,97.574816 11.0534887,97.612195 11.2162966,97.612195 C11.4023626,97.620502 11.6276771,97.581046 11.8922398,97.493829 C12.1568025,97.406611 12.3137958,97.313164 12.3632196,97.213487 C12.4126434,97.113809 12.4489844,97.018285 12.4722427,96.926915 L12.4722427,96.926915 L12.4199116,95.157644 L12.4199116,88.479272 L16.2575247,88.479272 C16.3331141,88.479272 16.373816,88.437739 16.3796306,88.354675 C16.3796306,88.338062 16.3650942,88.29653 16.3360213,88.230078 C16.3069485,88.163627 16.280783,88.109635 16.2575247,88.068103 L16.2575247,88.068103 L14.9318038,86.261454 C14.8736582,86.195002 14.8329562,86.157623 14.8096979,86.149317 C14.768996,86.149317 14.728294,86.186696 14.6875921,86.261454 L14.6875921,86.261454 L13.771798,87.80645 L12.4199116,87.80645 L12.4199116,82.224527 L12.8472821,81.676302 C12.9112424,81.593238 12.9504907,81.528863 12.9650271,81.483178 C12.9795635,81.437492 12.9722953,81.393883 12.9432225,81.352351 C12.9141496,81.310819 12.8705404,81.277593 12.8123947,81.252674 L12.8123947,81.252674 L11.1377999,80.642151 L10.90231,80.554934 C10.8732372,80.571547 10.8412571,80.608925 10.8063697,80.667071 L10.8063697,80.667071 L10.8587008,83.221299 L10.8587008,87.80645 L8.12004051,87.80645 L8.12004051,81.975334 L8.54741106,81.40219 C8.59974215,81.327432 8.62881497,81.265134 8.63462954,81.215295 C8.6404441,81.165457 8.64189775,81.136384 8.63899046,81.128078 C8.63608318,81.119771 8.6157322,81.101082 8.57793753,81.072009 C8.54014285,81.042937 8.51833823,81.024247 8.51252367,81.015941 L8.51252367,81.015941 L6.85537254,80.442797 L6.61988265,80.355579 C6.59662439,80.372192 6.57045884,80.401265 6.54138601,80.442797 L6.54138601,80.442797 L6.60243895,83.370815 L6.60243895,87.80645 L4.48302988,87.80645 L4.48302988,83.159001 L4.94528783,82.635695 C5.00924805,82.560937 5.04413544,82.496563 5.04995,82.442571 C5.05576457,82.388579 5.03832087,82.330434 4.99761892,82.268136 C4.95691696,82.205837 4.916215,82.162229 4.87551304,82.137309 L4.87551304,82.137309 L3.05264681,81.40219 L2.89565354,81.327432 C2.87820985,81.335738 2.86076615,81.352351 2.84332245,81.377271 L2.84332245,81.377271 L2.89565354,84.130853 L2.89565354,87.80645 L0.2180462,87.80645 C0.0726820668,87.80645 -3.55271368e-14,87.918587 -3.55271368e-14,88.142861 C-3.55271368e-14,88.367135 0.0726820668,88.479272 0.2180462,88.479272 L0.2180462,88.479272 L2.89565354,88.479272 L2.89565354,100.278561 L2.57294517,100.602512 C2.50317038,100.668963 2.46828299,100.743721 2.46828299,100.826785 C2.46246842,100.893237 2.49735582,100.972148 2.57294517,101.063519 L2.57294517,101.063519 L3.56723584,102.421621 C3.64282519,102.529604 3.68934171,102.589826 3.70678541,102.602286 Z M10.8587008,95.157644 L8.12004051,95.157644 L8.12004051,88.479272 L10.8587008,88.479272 L10.8587008,95.157644 Z M19.9715783,102.913777 C20.0268167,102.91793 20.086416,102.903394 20.1503762,102.870168 L20.1503762,102.870168 L20.6300778,102.670814 C21.2289781,102.421621 21.8278783,102.087287 22.4267785,101.667812 C23.0256788,101.248337 23.4792149,100.799789 23.7873868,100.322169 C24.0955588,99.84455 24.3354096,99.290095 24.5069393,98.658806 C24.678469,98.027517 24.7874921,97.269555 24.8340086,96.38492 C24.8805251,95.500285 24.9125052,94.887685 24.9299489,94.547121 L24.9299489,94.547121 L25.1828825,94.297928 C25.3049884,94.181638 25.3645877,94.098574 25.3616804,94.048735 C25.3587731,93.998897 25.3413294,93.953211 25.3093493,93.911679 C25.2773692,93.870147 25.2177699,93.828615 25.1305514,93.787083 L25.1305514,93.787083 L23.5257314,93.126721 C24.6828299,92.121643 25.8282993,90.979508 26.9621395,89.700317 C27.2063513,90.306687 27.4578312,90.840375 27.7165794,91.301382 C27.9753275,91.762389 28.2500657,92.192247 28.540794,92.590956 C28.8315223,92.989665 29.2385418,93.4216 29.7618527,93.88676 L29.7618527,93.88676 L28.5233503,93.425753 C28.3954299,93.384221 28.3023968,93.375914 28.2442512,93.400834 L28.2442512,93.400834 L28.3401915,95.344539 L28.3401915,100.353319 L28.2704167,102.546217 C28.3053041,102.645894 28.3532743,102.731035 28.4143272,102.80164 C28.4753801,102.872245 28.7094164,102.90547 29.116436,102.901317 C29.5234555,102.897164 29.7822037,102.641741 29.8926804,102.135049 L29.8926804,102.135049 L29.8403494,100.452996 L29.8403494,94.634339 C29.9508261,94.476517 30.0758393,94.327001 30.2153888,94.185792 C30.9131367,94.684178 31.5600071,95.072503 32.156,95.350769 C32.751993,95.629034 33.1226715,95.768167 33.2680356,95.768167 C33.3087376,95.776474 33.3363568,95.757784 33.3508932,95.712099 C33.3654296,95.666413 33.3974097,95.54597 33.4468335,95.350769 C33.4962573,95.155568 33.5980122,94.895992 33.7520982,94.572041 C33.9061842,94.24809 34.166386,93.936598 34.5327036,93.637567 L34.5327036,93.637567 L34.7333061,93.475591 C34.8263391,93.400834 34.871402,93.340612 34.8687476,93.294926 C34.8655875,93.249241 34.8495974,93.209786 34.8205246,93.17656 C34.7914517,93.143334 34.7623789,93.126721 34.7333061,93.126721 L34.7333061,93.126721 L34.3408229,93.126721 C32.8057777,93.126721 31.4248184,92.825613 30.1979451,92.223397 C28.9710718,91.62118 28.0000394,90.755234 27.2848479,89.625559 L27.2848479,89.625559 L27.5465033,89.625559 C27.5813907,89.625559 27.6104635,89.608946 27.6337218,89.575721 C27.6569801,89.542495 27.6715165,89.505116 27.677331,89.463584 C27.677331,89.438665 27.6642483,89.399209 27.6380827,89.345217 C27.6119172,89.291225 27.5813907,89.243463 27.5465033,89.201931 L27.5465033,89.201931 L26.9970269,88.666166 L30.2589981,88.666166 L30.2589981,89.401286 C30.2589981,89.750156 30.4000013,89.922514 30.6820077,89.918361 C30.9640141,89.914208 31.2082259,89.847756 31.4146429,89.719007 C31.62106,89.590257 31.7489804,89.47189 31.7984042,89.363907 C31.847828,89.255923 31.8841691,89.131327 31.9074273,88.990117 L31.9074273,88.990117 L31.8202089,87.258226 L31.8202089,82.573397 L32.1952483,82.137309 C32.2708377,82.045939 32.3115396,81.962874 32.3173542,81.888116 C32.3173542,81.788439 32.2475794,81.676302 32.1080298,81.551706 L32.1080298,81.551706 L31.0003551,80.617232 C30.8375473,80.492635 30.741607,80.43449 30.7125342,80.442797 C30.6834613,80.451103 30.6369448,80.509248 30.5729846,80.617232 L30.5729846,80.617232 L30.1194485,81.427109 L22.3570038,81.427109 L21.3801568,80.69199 C21.1417596,80.517555 21.0152928,80.43449 21.0007564,80.442797 C20.98622,80.451103 20.9644154,80.471869 20.9353425,80.505095 L20.9353425,80.505095 L20.9876736,82.747832 L20.9876736,86.959194 L20.9178988,89.812454 C20.9586008,89.920438 21.0094782,90.003502 21.0705312,90.061647 C21.1315841,90.119792 21.2376999,90.144711 21.3888786,90.136405 C21.6447195,90.136405 21.8700339,90.067877 22.0648218,89.930821 C22.2596098,89.793765 22.3570038,89.592334 22.3570038,89.326528 L22.3570038,89.326528 L22.3570038,88.666166 L25.3747632,88.666166 L25.2439355,88.865521 L24.8950615,89.413745 C24.8821864,89.433325 24.8682062,89.454218 24.853121,89.476425 L24.7493488,89.625432 C24.5347884,89.927515 24.1865152,90.388565 23.7045293,91.008581 C23.0910926,91.797692 22.4703878,92.518275 21.8424147,93.17033 C21.2144417,93.822385 20.8030612,94.231477 20.6082732,94.397606 L20.6082732,94.397606 L20.4935567,94.49313 C20.2734916,94.673102 19.9090717,94.956905 19.4002973,95.344539 L19.4002973,95.344539 L18.7984898,95.805546 C18.7170858,95.871998 18.6763839,95.934296 18.6763839,95.992441 L18.6763839,95.992441 L18.6763839,96.117037 C18.6763839,96.141957 18.7010958,96.156493 18.7505196,96.160646 C18.7999434,96.164799 18.86245,96.14611 18.9380393,96.104578 L18.9380393,96.104578 L19.5049595,95.805546 C20.9237134,95.057967 22.2029178,94.22317 23.3425726,93.301156 L23.3425726,93.301156 L23.4036255,94.534662 C23.4094401,94.634339 23.3963573,95.066273 23.3643772,95.830465 C23.3323971,96.594657 23.2858806,97.248789 23.2248276,97.79286 C23.1637747,98.336932 22.9835232,99.013906 22.6840731,99.823783 C22.3846229,100.633661 21.670885,101.420695 20.5428594,102.184887 L20.5428594,102.184887 L20.0108266,102.546217 C19.9584956,102.587749 19.9177936,102.633435 19.8887208,102.683273 C19.8596479,102.733112 19.8465652,102.766338 19.8494725,102.78295 C19.8523797,102.799563 19.8596479,102.824483 19.8712771,102.857708 C19.8829062,102.890934 19.91634,102.909624 19.9715783,102.913777 Z M25.5404783,84.791215 L22.3570038,84.791215 L22.3570038,82.062551 L25.5404783,82.062551 L25.5404783,84.791215 Z M30.2589981,84.791215 L26.9970269,84.791215 L26.9970269,82.311744 C27.049358,82.22868 27.1045964,82.145616 27.162742,82.062551 L27.162742,82.062551 L30.2589981,82.062551 L30.2589981,84.791215 Z M25.5404783,88.030724 L22.3570038,88.030724 L22.3570038,85.426657 L25.5404783,85.426657 L25.5404783,88.030724 Z M30.2589981,88.030724 L26.9970269,88.030724 L26.9970269,85.426657 L30.2589981,85.426657 L30.2589981,88.030724 Z M40.0652625,102.882628 C40.1699247,102.915853 40.3181961,102.830712 40.5100768,102.627205 C40.7019574,102.423697 40.8880235,102.211883 41.068275,101.991763 C41.2485266,101.771642 41.4476754,101.424849 41.6657216,100.951382 C41.8837678,100.477915 42.0393075,99.925537 42.1323405,99.294248 C42.1904862,98.862314 42.2006616,98.413766 42.162867,97.948606 C42.1250723,97.483446 41.9913373,97.045281 41.761662,96.634113 C41.5319866,96.222944 41.1961955,96.009054 40.7542885,95.992441 C40.3996,95.992441 40.1059645,96.15857 39.8733819,96.490827 C39.6407992,96.823084 39.5245079,97.21764 39.5245079,97.674494 C39.5245079,98.131348 39.617541,98.500984 39.8036071,98.783403 C39.9896732,99.065821 40.2426068,99.215337 40.5624079,99.23195 C40.6496263,99.240256 40.7513812,99.21949 40.8676725,99.169652 C40.9839638,99.119813 41.0566459,99.099047 41.0857187,99.107354 C41.149679,99.140579 41.2034637,99.240256 41.2470729,99.406385 C41.2906822,99.572514 41.263063,99.834166 41.1642154,100.191343 C41.0653678,100.54852 40.9883248,100.789406 40.9330864,100.914003 C40.877848,101.038599 40.7760931,101.233801 40.6278217,101.499606 C40.4795503,101.765412 40.3850636,101.923235 40.3443617,101.973073 L40.3443617,101.973073 L40.0129314,102.396701 C39.9373421,102.496379 39.901001,102.593979 39.9039083,102.689503 C39.9068156,102.785027 39.9606003,102.849402 40.0652625,102.882628 Z M56.0026373,98.460698 L56.0465954,98.459452 C56.1512575,98.459452 56.2559197,98.409613 56.3605819,98.309936 L56.3605819,98.309936 L56.9187802,97.786631 C57.4711639,97.271632 58.0482595,96.592581 58.650067,95.749478 C59.2518745,94.906375 59.7112252,94.042506 60.028119,93.15787 C60.3450128,92.273235 60.5398007,91.432209 60.6124828,90.634791 C60.6851649,89.837373 60.7287741,89.193625 60.7433105,88.703545 C60.7578469,88.213466 60.7665688,87.899898 60.7694761,87.762842 C60.7723834,87.625785 60.773837,87.490806 60.773837,87.357903 L60.773837,87.357903 L64.4980661,87.357903 C64.7887944,88.936125 65.211804,90.300457 65.767095,91.450898 C66.322386,92.601339 66.9096571,93.539966 67.5289083,94.266779 C68.1481595,94.993592 68.5827983,95.471212 68.8328246,95.699639 C69.0828509,95.928066 69.3910228,96.185565 69.7573405,96.472137 C70.1236581,96.758709 70.3446116,96.901995 70.4202009,96.901995 C70.4899757,96.910302 70.5771942,96.771169 70.6818564,96.484597 C70.7865185,96.198025 70.9435118,95.905223 71.1528361,95.606192 C71.3621605,95.30716 71.5133392,95.124419 71.6063722,95.057967 L71.6063722,95.057967 L72.0337428,94.758935 C72.1558487,94.675871 72.2183552,94.59696 72.2214352,94.522202 C72.2241698,94.447444 72.1558487,94.389299 72.0162991,94.347767 L72.0162991,94.347767 L71.3708823,94.185792 C70.5452141,93.986437 69.7500723,93.585652 68.9854569,92.983435 C68.2208416,92.381219 67.4794845,91.681402 66.7613857,90.883984 C66.0432868,90.086566 65.5650388,89.345217 65.3266417,88.659936 C65.0882445,87.974656 64.9399731,87.540644 64.8818274,87.357903 L64.8818274,87.357903 L67.7513154,87.357903 L67.7513154,88.691086 C67.7513154,89.00673 67.9257524,89.168706 68.2746263,89.177012 C68.4490633,89.185318 68.6307684,89.160399 68.8197418,89.102254 C69.0087152,89.044109 69.1337283,88.977658 69.1947813,88.9029 C69.2558342,88.828142 69.3096189,88.716005 69.3561355,88.566489 L69.3561355,88.566489 L69.3038044,86.211615 L69.3038044,82.884888 L69.6265127,82.48618 C69.7776914,82.295132 69.8547344,82.168458 69.8576417,82.10616 C69.860549,82.043862 69.8445589,81.985717 69.8096715,81.931725 C69.7747842,81.877733 69.670122,81.767673 69.495685,81.601544 L69.495685,81.601544 L68.7368842,80.891344 C68.539189,80.708603 68.4098149,80.615155 68.348762,80.611002 C68.2877091,80.606849 68.1757787,80.733522 68.0129709,80.991021 L68.0129709,80.991021 L67.6466532,81.576625 L60.9918832,81.576625 L59.3608976,80.579853 L59.1341296,80.405418 C59.0992422,80.438644 59.0803448,80.476023 59.0774376,80.517555 C59.0745303,80.559087 59.0759839,80.579853 59.0817985,80.579853 L59.0817985,80.579853 L59.1864607,83.520331 C59.2097189,84.309442 59.2228017,85.10063 59.225709,85.893894 C59.2286163,86.687158 59.2184408,87.478346 59.1951825,88.267457 C59.1719242,89.056569 59.1399441,89.750156 59.0992422,90.348219 C59.0585402,90.946282 58.9218979,91.891139 58.6893153,93.18279 C58.4567327,94.47444 57.8200378,95.805546 56.7792306,97.176108 L56.7792306,97.176108 L56.3344164,97.761711 C56.2704561,97.844776 56.1905059,97.938223 56.0945655,98.042053 C55.9986252,98.145884 55.9448405,98.222718 55.9332113,98.272557 C55.9273968,98.297476 55.9244895,98.336932 55.9244895,98.390924 C55.9244895,98.444915 55.9651915,98.467758 56.0465954,98.459452 L56.0026373,98.460698 Z M67.7513154,86.722461 L60.7912807,86.722461 L60.7912807,82.236987 L67.7513154,82.236987 L67.7513154,86.722461 Z M65.2743106,96.827237 C65.4894495,96.84385 65.6798765,96.74002 65.8455916,96.515746 C66.0113067,96.291472 66.0970716,95.967522 66.1028861,95.543893 C66.1028861,95.228249 66.0258431,94.883532 65.8717572,94.509742 C65.7176712,94.135953 65.3949628,93.749704 64.903632,93.350995 C64.4123013,92.952286 63.8977122,92.690633 63.3598649,92.566037 C63.0461207,92.493356 62.8060781,92.4341 62.6397371,92.388271 L62.5152085,92.352276 C62.4619689,92.335923 62.4222663,92.322035 62.3961007,92.310614 C62.2914386,92.264929 62.2100346,92.242086 62.151889,92.242086 C61.9832666,92.267005 61.8975018,92.323074 61.8945945,92.410291 C61.8916872,92.497509 61.9280282,92.574343 62.0036176,92.640795 L62.0036176,92.640795 L62.4484318,92.964746 C62.7333455,93.197326 62.9979082,93.479745 63.24212,93.812002 C63.4863317,94.144259 63.7305435,94.605266 63.9747552,95.195023 C64.218967,95.78478 64.4123013,96.202178 64.5547581,96.447218 C64.697215,96.692258 64.9370658,96.818931 65.2743106,96.827237 Z M65.7191248,102.770491 C66.091257,102.770491 66.3398297,102.596056 66.4648428,102.247185 C66.589856,101.898315 66.6581771,101.611743 66.6698063,101.38747 C66.68725,100.847551 66.5157203,100.301403 66.1552172,99.749026 C65.7947142,99.196648 65.2365159,98.733564 64.4806224,98.359774 C63.7247289,97.985985 63.1098386,97.751328 62.6359516,97.655804 C62.1620645,97.56028 61.8800581,97.497982 61.7899323,97.468909 C61.6998065,97.439837 61.6285781,97.425301 61.576247,97.425301 C61.4192538,97.45022 61.3393035,97.500059 61.3363962,97.574816 C61.3334889,97.649574 61.3785518,97.720179 61.4715848,97.786631 L61.4715848,97.786631 L62.0472268,98.123041 C62.4077299,98.363928 62.8031203,98.712798 63.2333981,99.169652 C63.663676,99.626506 64.0706956,100.286867 64.4544569,101.150736 C64.8382182,102.014605 65.09842,102.502608 65.2350623,102.614745 C65.3717045,102.726882 65.5330587,102.778797 65.7191248,102.770491 Z M78.3599899,103.119361 C78.8425988,103.127667 79.1464099,103.054986 79.271423,102.901317 C79.3964362,102.747648 79.482201,102.583596 79.5287175,102.409161 L79.5287175,102.409161 L79.4938301,100.30348 L79.4938301,90.373138 L79.8165385,90.086566 C79.9328298,89.986889 79.9866145,89.895518 79.9778927,89.812454 C79.9691708,89.72939 79.9415517,89.667092 79.8950351,89.625559 L79.8950351,89.625559 L79.7205982,89.500963 L80.6887233,87.208387 C81.2643653,85.704923 81.5754445,84.895045 81.621961,84.778755 L81.621961,84.778755 L90.3001998,84.778755 C90.4513785,84.778755 90.5255142,84.710227 90.522767,84.573171 C90.5196997,84.436115 90.4601004,84.296982 90.3438091,84.155773 L90.3438091,84.155773 L89.0704193,82.685534 C88.9483134,82.552631 88.8581876,82.484103 88.800042,82.47995 C88.7418963,82.475796 88.6721215,82.544325 88.5907176,82.685534 L88.5907176,82.685534 L87.7534202,84.105934 L81.8225636,84.105934 C82.0725899,83.366662 82.3022652,82.644002 82.5115895,81.937955 L82.5115895,81.937955 L82.9825693,81.576625 C83.133748,81.460335 83.2078837,81.344045 83.2049765,81.227755 C83.2020692,81.111465 83.1279335,81.015941 82.9825693,80.941183 L82.9825693,80.941183 L81.0986502,80.069007 C80.9823589,80.019169 80.9140377,79.996326 80.8936867,80.000479 C80.8733358,80.004632 80.8544384,80.019169 80.8369947,80.044088 L80.8369947,80.044088 L80.7410544,80.654611 L80.5142864,81.813358 C80.4096242,82.336664 80.2235581,83.100856 79.9560881,84.105934 L79.9560881,84.105934 L75.141628,84.105934 C74.9962638,84.105934 74.9250354,84.218071 74.9279427,84.442345 C74.93085,84.666618 75.0020784,84.778755 75.141628,84.778755 L75.141628,84.778755 L79.7554856,84.778755 C79.4647573,85.742302 79.2438038,86.450425 79.0926251,86.903126 C78.9414464,87.355826 78.7117711,88.001652 78.4035991,88.840601 L78.4035991,88.840601 L78.1245,88.641247 C77.9849504,88.549876 77.913722,88.562336 77.9108147,88.678626 C77.9079074,88.794916 77.9238975,89.01919 77.9587849,89.351447 L77.9587849,89.351447 L78.011116,89.899672 C77.1796331,91.727087 76.6185276,92.91906 76.3277993,93.475591 L76.3277993,93.475591 L75.6300515,94.758935 C75.3974688,95.19087 75.234661,95.477442 75.141628,95.618651 L75.141628,95.618651 L74.7142574,96.279013 C74.6444826,96.395303 74.6110489,96.48875 74.6139562,96.559355 C74.6168634,96.62996 74.6255853,96.675645 74.6401217,96.696411 C74.6546581,96.717177 74.6822773,96.729637 74.7229793,96.73379 C74.7636812,96.737943 74.813105,96.706794 74.8712507,96.640343 L74.8712507,96.640343 L75.3335086,96.104578 C75.6067932,95.788933 75.866995,95.471212 76.114114,95.151414 C76.3612331,94.831617 76.993567,93.953211 78.011116,92.516198 L78.011116,92.516198 L78.011116,99.655578 L77.9413412,102.733112 C77.9878577,102.890934 78.0387352,102.994765 78.0939735,103.044603 C78.1492119,103.094442 78.237884,103.119361 78.3599899,103.119361 Z M90.518246,100.639891 C90.6984976,100.639891 90.7871697,100.590052 90.7843976,100.490375 C90.7813551,100.390698 90.7668187,100.307633 90.7406532,100.241182 C90.7144876,100.17473 90.6403519,100.05844 90.518246,99.892312 L90.518246,99.892312 L89.4541806,98.50929 C89.3320747,98.359774 89.2390417,98.280863 89.1750814,98.272557 C89.1053067,98.272557 89.0239027,98.351468 88.9308697,98.50929 L88.9308697,98.50929 L88.049963,99.991989 L85.4770179,99.991989 L85.4770179,92.267005 L89.3495184,92.267005 C89.5239554,92.267005 89.6097202,92.219243 89.6068129,92.123719 C89.6039056,92.028195 89.5893692,91.945131 89.5632037,91.874526 C89.5370381,91.803922 89.4774388,91.710474 89.3844058,91.594184 L89.3844058,91.594184 L88.2767311,90.29838 C88.1371815,90.140558 88.0397876,90.063724 87.9845492,90.067877 C87.9293108,90.07203 87.8551751,90.148865 87.7621421,90.29838 L87.7621421,90.29838 L86.959732,91.594184 L85.4770179,91.594184 L85.4770179,87.494959 L85.8869447,87.033952 C86.0206797,86.884436 86.0890009,86.778529 86.0919082,86.716231 C86.0948154,86.653933 86.0817327,86.602017 86.0526598,86.560485 C86.023587,86.518953 85.9683486,86.481574 85.8869447,86.448348 L85.8869447,86.448348 L84.151297,85.937503 C84.0233765,85.904277 83.9506945,85.891817 83.9332508,85.900124 C83.9158071,85.90843 83.8896415,85.937503 83.8547541,85.987341 L83.8547541,85.987341 L83.9158071,88.765843 L83.9158071,91.594184 L80.2787965,91.594184 C80.1276178,91.594184 80.0563893,91.706321 80.0651112,91.930595 C80.073833,92.154868 80.1450615,92.267005 80.2787965,92.267005 L80.2787965,92.267005 L83.9158071,92.267005 L83.9158071,99.991989 L80.0956376,99.991989 C79.9502735,99.991989 79.8819524,100.072976 79.8906742,100.234952 C79.8993961,100.396927 79.9531808,100.531907 80.0520284,100.639891 L80.0520284,100.639891 L90.518246,100.639891 Z M99.7663122,102.832789 C99.795385,102.857708 99.8826035,102.853555 100.027968,102.820329 L100.027968,102.820329 L100.455338,102.720652 C100.565815,102.695733 100.814388,102.589826 101.201056,102.402931 C101.587725,102.216036 101.821761,101.993839 101.903165,101.73634 C101.984569,101.47884 102.025271,101.167349 102.025271,100.801866 L102.025271,100.801866 L102.025271,90.746928 L108.802147,90.746928 C108.900994,90.746928 108.967862,90.709549 109.002749,90.634791 C109.008564,90.626485 109.010017,90.603642 109.00711,90.566263 C109.004203,90.528884 108.988213,90.481122 108.95914,90.422977 L108.95914,90.422977 L107.624697,88.367135 C107.549108,88.259151 107.495323,88.207236 107.463343,88.211389 C107.431363,88.215542 107.377578,88.28407 107.301989,88.416973 L107.301989,88.416973 L106.342586,90.086566 L102.025271,90.086566 L102.025271,84.367587 L102.504972,83.90658 C102.545674,83.865048 102.579108,83.811056 102.605274,83.744604 C102.631439,83.678153 102.645976,83.632467 102.648883,83.607548 C102.65179,83.582629 102.634347,83.547326 102.596552,83.501641 C102.558757,83.455956 102.499158,83.408194 102.417754,83.358355 L102.417754,83.358355 L107.485148,83.358355 C107.572366,83.358355 107.618883,83.304363 107.624697,83.19638 C107.624697,83.113315 107.586903,83.017791 107.511313,82.909808 L107.511313,82.909808 L106.211758,81.177916 C106.130354,81.078239 106.078023,81.022171 106.054765,81.009711 C106.031506,80.997251 105.958824,81.086545 105.836718,81.277593 L105.836718,81.277593 L104.94709,82.685534 L94.2279387,82.685534 C94.0825746,82.685534 94.0098925,82.797671 94.0098925,83.021945 C94.0098925,83.246218 94.0825746,83.358355 94.2279387,83.358355 L94.2279387,83.358355 L100.315789,83.358355 L100.315789,90.086566 L93.521469,90.086566 C93.3761049,90.086566 93.3034228,90.196627 93.3034228,90.416747 C93.3034228,90.636868 93.3761049,90.746928 93.521469,90.746928 L93.521469,90.746928 L100.315789,90.746928 L100.315789,99.543441 C100.315789,99.767715 100.283809,99.937997 100.219848,100.054287 C100.155888,100.170577 99.9407492,100.228722 99.5744316,100.228722 C99.4581402,100.237029 99.0365843,100.191343 98.3097636,100.091666 L98.3097636,100.091666 L97.7253998,100.016908 C97.5974793,100.008602 97.5335191,100.05844 97.5335191,100.166424 C97.5277046,100.207956 97.5393337,100.257795 97.5684065,100.31594 C97.5974793,100.374085 97.6498104,100.41977 97.7253998,100.452996 L97.7253998,100.452996 L98.4144258,100.801866 C98.879591,101.042753 99.2022994,101.383316 99.3825509,101.823557 L99.3825509,101.823557 L99.6267626,102.43408 L99.7663122,102.832789 Z M121.381959,86.984113 C121.742462,87.000726 121.998303,86.788912 122.149482,86.348671 C122.30066,85.90843 122.379157,85.501415 122.384971,85.127625 C122.384971,83.973031 122.004117,83.051017 121.242409,82.361583 C120.480701,81.672149 120.001,81.27344 119.803304,81.165457 C119.605609,81.057473 119.471874,80.974409 119.402099,80.916264 C119.332325,80.858119 119.274179,80.833199 119.227662,80.841506 C119.163702,80.858119 119.130268,80.878885 119.127361,80.903804 C119.124454,80.928723 119.124454,80.951566 119.127361,80.972332 C119.130268,80.993098 119.131722,81.024247 119.131722,81.065779 L119.131722,81.065779 L119.506762,81.589085 C119.983556,82.261906 120.277191,83.212992 120.387668,84.442345 L120.387668,84.442345 L120.448721,85.538794 C120.466165,85.854438 120.528671,86.17216 120.636241,86.491957 C120.74381,86.811755 120.992383,86.975807 121.381959,86.984113 Z M120.762708,102.259645 C122.041912,102.267952 122.94317,102.18904 123.466481,102.022912 C123.989791,101.856783 124.327036,101.507913 124.478215,100.976301 C124.513102,100.851705 124.529092,100.741644 124.526185,100.64612 C124.523278,100.550596 124.514556,100.457149 124.50002,100.365778 C124.485483,100.274407 124.40844,100.095819 124.268891,99.830013 C124.129341,99.564207 124.034854,99.33578 123.985431,99.144732 C123.936007,98.953685 123.911295,98.733564 123.911295,98.484371 C123.90548,98.268404 123.928739,97.898767 123.98107,97.375462 C124.033401,96.852157 124.097361,96.395303 124.17295,96.004901 L124.17295,96.004901 L124.303778,95.332079 C124.303778,95.30716 124.305232,95.278088 124.308139,95.244862 C124.311046,95.211636 124.300871,95.168027 124.277612,95.114035 C124.254354,95.060044 124.216559,95.028895 124.164228,95.020588 C124.106083,95.020588 124.068288,95.057967 124.050844,95.132725 L124.050844,95.132725 L123.911295,95.606192 L123.544977,97.001673 L123.230991,98.110581 C123.143772,98.434532 123.065276,98.696185 122.995501,98.895539 C122.925726,99.094894 122.78763,99.337857 122.581213,99.624429 C122.374796,99.911001 121.643614,100.054287 120.387668,100.054287 C119.875986,100.062593 119.391924,100.014831 118.935481,99.911001 C118.479037,99.807171 118.201392,99.665961 118.102544,99.487373 C118.003696,99.308785 117.95718,99.028442 117.962994,98.646346 L117.962994,98.646346 L117.980438,85.787987 L118.503749,85.277141 C118.637484,85.152545 118.701444,85.065327 118.69563,85.015489 C118.689815,84.96565 118.673825,84.924118 118.64766,84.890892 C118.621494,84.857666 118.544451,84.807828 118.416531,84.741376 L118.416531,84.741376 L116.85532,84.043636 C116.576221,83.919039 116.423588,83.860894 116.397423,83.869201 C116.371257,83.877507 116.332009,83.919039 116.279678,83.993797 L116.279678,83.993797 L116.38434,87.432661 L116.375618,99.817554 C116.369804,100.141505 116.404691,100.463379 116.48028,100.783177 C116.55587,101.102974 116.868403,101.429002 117.417879,101.761259 C117.967355,102.093516 119.082298,102.259645 120.762708,102.259645 Z M126.649955,96.602964 C126.9872,96.61127 127.251763,96.405686 127.443643,95.986211 C127.635524,95.566736 127.730011,95.037201 127.727103,94.397606 C127.724196,93.75801 127.615173,93.06027 127.400034,92.304384 C127.184895,91.548499 126.709554,90.711626 125.974012,89.793765 C125.238469,88.875904 124.790748,88.373364 124.630847,88.286147 C124.470947,88.198929 124.379367,88.155321 124.356109,88.155321 C124.286334,88.171933 124.245632,88.209312 124.234003,88.267457 C124.222374,88.325602 124.251447,88.396207 124.321222,88.479272 L124.321222,88.479272 L124.565433,88.853061 C124.955009,89.459431 125.24283,90.103179 125.428896,90.784307 C125.614962,91.465434 125.719625,92.063498 125.742883,92.578497 L125.742883,92.578497 L125.673108,94.983209 C125.684737,95.365305 125.763234,95.730788 125.908598,96.079658 C126.053962,96.428529 126.301081,96.602964 126.649955,96.602964 Z M113.03515,96.652802 C113.384024,96.677722 113.728537,96.445141 114.068689,95.955062 C114.408841,95.464982 114.626888,94.900145 114.722828,94.260549 C114.818768,93.620954 114.869646,93.06027 114.87546,92.578497 C114.87546,92.113336 114.853656,91.727087 114.810046,91.419749 C114.766437,91.112411 114.686487,90.67217 114.570196,90.099026 C114.453904,89.525882 114.359418,89.112637 114.286736,88.859291 C114.214053,88.605945 114.14864,88.466812 114.090494,88.441893 C114.038163,88.433586 113.991646,88.483425 113.950944,88.591408 L113.950944,88.591408 L113.985832,89.127173 C113.997461,89.36806 114.006183,89.648402 114.011997,89.9682 C114.017812,90.287997 113.959666,90.709549 113.83756,91.232854 C113.715454,91.75616 113.57009,92.192247 113.401468,92.541118 C113.232846,92.889988 113.013346,93.265854 112.742968,93.668716 C112.472591,94.071578 112.302515,94.376839 112.23274,94.5845 C112.157151,94.81708 112.119356,95.066273 112.119356,95.332079 C112.119356,95.597885 112.190585,95.882381 112.333042,96.185565 C112.475498,96.48875 112.709535,96.644496 113.03515,96.652802 Z" id="世界，尽在于心" fill="#FFFFFF"></path>
        </g>
    </g>
</svg>